<svg width="120" height="136" viewBox="0 0 120 136" fill="none" xmlns="http://www.w3.org/2000/svg">
<path d="M30.4688 30.4062C30.4688 14.3223 43.6523 0.875 60 0.875C76.084 0.875 89.5312 14.3223 89.5312 30.4062V43.0625H106.406C113.262 43.0625 119.062 48.8633 119.062 55.7188V110.562C119.062 124.537 107.725 135.875 93.75 135.875H26.25C12.0117 135.875 0.9375 124.537 0.9375 110.562V55.7188C0.9375 48.8633 6.47461 43.0625 13.5938 43.0625H30.4688V30.4062ZM43.125 43.0625H76.875V30.4062C76.875 21.1777 69.2285 13.5312 60 13.5312C50.5078 13.5312 43.125 21.1777 43.125 30.4062V43.0625ZM36.7969 68.375C40.2246 68.375 43.125 65.7383 43.125 62.0469C43.125 58.6191 40.2246 55.7188 36.7969 55.7188C33.1055 55.7188 30.4688 58.6191 30.4688 62.0469C30.4688 65.7383 33.1055 68.375 36.7969 68.375ZM83.2031 55.7188C79.5117 55.7188 76.875 58.6191 76.875 62.0469C76.875 65.7383 79.5117 68.375 83.2031 68.375C86.6309 68.375 89.5312 65.7383 89.5312 62.0469C89.5312 58.6191 86.6309 55.7188 83.2031 55.7188Z" fill="black"/>
</svg>
