<svg width="16" height="20" viewBox="0 0 16 20" fill="none" xmlns="http://www.w3.org/2000/svg">
<path d="M15.5 8.36364C15.5 14.0909 8 19 8 19C8 19 0.5 14.0909 0.5 8.36364C0.5 6.41068 1.29018 4.53771 2.6967 3.15676C4.10322 1.77581 6.01088 1 8 1C9.98912 1 11.8968 1.77581 13.3033 3.15676C14.7098 4.53771 15.5 6.41068 15.5 8.36364Z" stroke="#666666" stroke-linecap="round" stroke-linejoin="round"/>
<path d="M8 10.8183C9.38071 10.8183 10.5 9.71933 10.5 8.36373C10.5 7.00812 9.38071 5.90918 8 5.90918C6.61929 5.90918 5.5 7.00812 5.5 8.36373C5.5 9.71933 6.61929 10.8183 8 10.8183Z" stroke="#666666" stroke-linecap="round" stroke-linejoin="round"/>
</svg>
